<svg xmlns="http://www.w3.org/2000/svg" width="52.755" height="52.743" viewBox="0 0 52.755 52.743"><path d="M26.378,15.087A13.523,13.523,0,1,0,39.9,28.609,13.5,13.5,0,0,0,26.378,15.087Zm0,22.314a8.791,8.791,0,1,1,8.791-8.791A8.807,8.807,0,0,1,26.378,37.4Zm17.23-22.867a3.154,3.154,0,1,1-3.154-3.154A3.147,3.147,0,0,1,43.608,14.533Zm8.956,3.2c-.2-4.225-1.165-7.968-4.26-11.051s-6.826-4.049-11.051-4.26c-4.355-.247-17.406-.247-21.761,0-4.213.2-7.956,1.165-11.051,4.249S.392,13.5.18,17.723c-.247,4.355-.247,17.406,0,21.761.2,4.225,1.165,7.968,4.26,11.051s6.826,4.049,11.051,4.26c4.355.247,17.406.247,21.761,0,4.225-.2,7.968-1.165,11.051-4.26s4.049-6.826,4.26-11.051c.247-4.355.247-17.395,0-21.749ZM46.939,44.156a8.9,8.9,0,0,1-5.014,5.014c-3.472,1.377-11.71,1.059-15.547,1.059s-12.087.306-15.547-1.059a8.9,8.9,0,0,1-5.014-5.014C4.44,40.684,4.758,32.446,4.758,28.609S4.452,16.522,5.817,13.062a8.9,8.9,0,0,1,5.014-5.014C14.3,6.672,22.541,6.989,26.378,6.989s12.087-.306,15.547,1.059a8.9,8.9,0,0,1,5.014,5.014C48.316,16.534,48,24.772,48,28.609S48.316,40.7,46.939,44.156Z" transform="translate(0.005 -2.238)" fill="#fff"/></svg>