<svg xmlns="http://www.w3.org/2000/svg" width="37.062" height="27.385" viewBox="0 0 37.062 27.385"><g transform="translate(-738.323 -11.615)"><path d="M12.107.563A11.545,11.545,0,1,0,23.652,12.107,11.543,11.543,0,0,0,12.107.563Z" transform="translate(737.761 13.306)" fill="#add036"/><path d="M13.693,8.909a7.021,7.021,0,1,0,7.021,7.021A7.01,7.01,0,0,0,13.693,8.909Zm0,11.586a4.565,4.565,0,1,1,4.565-4.565,4.573,4.573,0,0,1-4.565,4.565ZM22.639,8.622A1.638,1.638,0,1,1,21,6.984,1.634,1.634,0,0,1,22.639,8.622Zm4.65,1.662a8.1,8.1,0,0,0-2.212-5.738,8.158,8.158,0,0,0-5.738-2.212c-2.261-.128-9.038-.128-11.3,0A8.146,8.146,0,0,0,2.3,4.54,8.131,8.131,0,0,0,.091,10.278c-.128,2.261-.128,9.038,0,11.3A8.1,8.1,0,0,0,2.3,27.314a8.168,8.168,0,0,0,5.738,2.212c2.261.128,9.038.128,11.3,0a8.1,8.1,0,0,0,5.738-2.212,8.158,8.158,0,0,0,2.212-5.738c.128-2.261.128-9.031,0-11.292ZM24.368,24a4.621,4.621,0,0,1-2.6,2.6c-1.8.715-6.08.55-8.072.55s-6.276.159-8.072-.55a4.621,4.621,0,0,1-2.6-2.6c-.715-1.8-.55-6.08-.55-8.072s-.159-6.276.55-8.072a4.621,4.621,0,0,1,2.6-2.6c1.8-.715,6.08-.55,8.072-.55s6.276-.159,8.072.55a4.621,4.621,0,0,1,2.6,2.6c.715,1.8.55,6.08.55,8.072S25.083,22.206,24.368,24Z" transform="translate(748 9.378)" fill="#253d80"/></g></svg>