<svg xmlns="http://www.w3.org/2000/svg" width="317.793" height="93.703" viewBox="0 0 317.793 93.703"><path d="M178.631,144.393a88.069,88.069,0,0,1,12.829-12.3q13.693-11.185,17.573-15.6,10.067-11.251,10.062-22.9,0-12.437-9.28-20.069-8.421-7.036-20.851-7.043-13.3,0-21.516,7.3c-.63.548-1.232,1.123-1.8,1.725q-6.9,7.169-7.941,18.876l-.27,2.569h16.719l.125-2.246q.338-6.374,4.08-10.062a14.255,14.255,0,0,1,10.331-3.818,14.473,14.473,0,0,1,9.81,3.485,11.422,11.422,0,0,1,4.007,9.02q0,5.256-4.473,11.382-4.34,5.85-21.642,20a85.523,85.523,0,0,0-10.746,10.341A46.081,46.081,0,0,0,157.115,149a21.883,21.883,0,0,0-1.447,8.1v3.091H219.23l0-15.781Z" transform="translate(-112.069 -66.484)" fill="#add036"/><path d="M195.185,169.386a7.942,7.942,0,0,1-1.438-.533.542.542,0,0,0-.482.01c-.312.14-.381.029-.332-.5l.03-.331h.9a2.886,2.886,0,0,0,2.02-.574,2.632,2.632,0,0,0,.834-1.105,9.278,9.278,0,0,1,.522-.925c.161-.17.1-.442-.23-1.035a10.673,10.673,0,0,1-.845-1.789,2.709,2.709,0,0,0-.362-.744.892.892,0,0,1-.181-.412.461.461,0,0,0-.15-.3.446.446,0,0,1-.151-.261.869.869,0,0,0-.091-.323c-.049-.09-.19-.381-.3-.643-.151-.342-.281-.493-.472-.543-.231-.061-.251-.1-.19-.433a.594.594,0,0,0-.182-.633c-.2-.211-.241-.361-.241-.885-.01-.492-.049-.663-.231-.854-.342-.362-.724-1.257-.6-1.407a3.732,3.732,0,0,0,.4-1.478,1.729,1.729,0,0,1,.121-.634.479.479,0,0,0-.019-.5c-.1-.2-.111-.281-.021-.372a1.777,1.777,0,0,0-.081-1.438,1.673,1.673,0,0,1-.2-.654c0-.291.02-.3.463-.3.381,0,.452-.03.422-.182-.02-.12-.141-.181-.4-.2a.9.9,0,0,1-.532-.231.636.636,0,0,0-.373-.191c-.13,0-.181-.081-.181-.282-.009-.382-.261-.654-.945-1.015l-.6-.312-1.659.02-1.669.03-.05.573c-.04.453-.1.613-.282.733a.588.588,0,0,0-.221.4c0,.131-.04.271-.1.3a.355.355,0,0,0-.1.261c0,.111-.161.312-.4.473a1.524,1.524,0,0,0-.493.553c-.081.211-.15.271-.282.231-.1-.03-.3-.081-.452-.11s-.392-.071-.533-.1c-.252-.05-.352-.382-.151-.5.061-.029.1-.231.1-.442a1.17,1.17,0,0,1,.151-.573,1.693,1.693,0,0,0,.151-.8c0-.5.03-.634.181-.674.091-.03.352-.131.573-.211.392-.151.352-.151-1.166-.161-1.407,0-1.6.02-1.819.192a4.3,4.3,0,0,1-1.538.612,1,1,0,0,0-.784.5c-.09.161-.3.281-.774.412-1.006.27-1.458.462-1.458.6,0,.07-.182.171-.4.211-1.106.211-1.86.543-1.86.8,0,.171-.271.282-1.116.452a3.056,3.056,0,0,0-.744.292c-.22.13-.583.321-.813.432a1.065,1.065,0,0,0-.473.342c-.071.181-.765.3-.935.161s-.341-.02-.341.271c0,.151-.061.241-.151.241a.923.923,0,0,0-.333.09,7.074,7.074,0,0,1-1.075.271,5.76,5.76,0,0,0-1,.251.437.437,0,0,1-.271.091,6.647,6.647,0,0,0-1.176.5c-.8.423-1.025.493-1.227.412s-.342-.04-.694.171a3.254,3.254,0,0,0-.5.321,3.1,3.1,0,0,1-.431.322,8.053,8.053,0,0,0-.775.623,2.693,2.693,0,0,1-1.418.864c-.15,0-.311.04-.341.1a.313.313,0,0,1-.231.1,1.479,1.479,0,0,0-.443.14,10.582,10.582,0,0,1-1.055.413c-.955.332-1.015.381-1.055.824-.03.312-.081.372-.433.5-.674.251-.845.261-1.105.091a.949.949,0,0,0-.915-.071.726.726,0,0,1-.342.131c-.322.04-.443.583-.131.583.141.01.1.081-.17.311a1.7,1.7,0,0,1-1.226.533c-.121-.04-.182,0-.182.111s-.05.15-.171.1c-.421-.181-.6-.15-1.055.151-.322.211-.544.292-.684.251a.6.6,0,0,0-.5.15l-.3.222-.191-.232-.191-.231-.372.282c-.291.231-.351.332-.312.522.071.272-.091.573-.633,1.2-.622.714-.743.774-1.106.593-.241-.12-.291-.191-.221-.322a4.26,4.26,0,0,0,.412-1.045c0-.15-.191-.382-.322-.382a4.889,4.889,0,0,0-1.086,1.568c0,.231-.312.643-.482.643a4.8,4.8,0,0,0-.714.7c-.663.744-.824.845-.784.473.03-.322-.493-.362-.834-.07a8.164,8.164,0,0,1-.815.563c-.6.362-.632.412-.743,1.377-.08.644-.181.764-.442.533s-.362-.2-.744.251c-.421.482-.492.7-.332,1.015a4.335,4.335,0,0,1-.15,2.252c-.051.03-.121-.02-.151-.1-.17-.442-.9.141-.794.634a1.015,1.015,0,0,1-.1.553,1.314,1.314,0,0,0-.15.493,5.179,5.179,0,0,0,.8,1.528c.061.029.1.181.1.321a3.414,3.414,0,0,0,.111.674,10.68,10.68,0,0,1,.311,1.307c.051.3-.17.291-.322-.01a3.838,3.838,0,0,1-.211-.784,3.9,3.9,0,0,0-.512-1.709c-.131-.221-.312-.553-.392-.734-.221-.512-.392-.412-.392.242a1.621,1.621,0,0,0,.212.915.9.9,0,0,1,.161.593,2.559,2.559,0,0,0,.392,1.116c.492.964.513,1.015.291.834-.271-.221-.181.241.1.5a.747.747,0,0,1,.252.412c0,.231.221.392.643.462.323.05.363.091.363.352,0,.212.13.433.472.794a4.019,4.019,0,0,0,.683.623,7.272,7.272,0,0,0,1.659.172l1.457.05.051.3c.05.281.081.3.553.331a1.392,1.392,0,0,1,.654.171,2.752,2.752,0,0,0,1.7.623,2.656,2.656,0,0,1,1.689.5,1.305,1.305,0,0,0,.473.231c.231,0,.322.473.12.694-.241.271-.2.312.281.312.312,0,.463.05.5.161.051.141.091.141.332,0,.583-.3.906-.382,1.116-.271a3.449,3.449,0,0,0,1.045.091,2.839,2.839,0,0,1,1.065.111,1.055,1.055,0,0,0,.955-.081.473.473,0,0,1,.292-.111c.2,0,.5-.593.622-1.226a.559.559,0,0,0-.161-.6c-.281-.3-1-.564-1.065-.392-.051.141-.864.15-1.106.01-.091-.05-.342-.161-.553-.251-.472-.181-.443-.392.06-.433a1.065,1.065,0,0,0,.7-.362,2.815,2.815,0,0,1,.554-.452.42.42,0,0,0,.22-.413c0-.241.051-.312.282-.362.15-.029.533-.12.854-.2a5.175,5.175,0,0,1,1.016-.14c.442,0,.693-.131,1.267-.654a1.331,1.331,0,0,1,1.266-.392c.3.051.342.1.322.332s.01.261.332.291c.271.02.382.091.422.231.04.171.141.191.794.191a3.192,3.192,0,0,1,1.337.251,3.167,3.167,0,0,0,.875.251c.151,0,.3.04.332.1a.4.4,0,0,0,.291.1.644.644,0,0,1,.412.2.581.581,0,0,0,.322.2.136.136,0,0,1,.131.14c0,.081.111.171.251.2a.281.281,0,0,1,.251.312c0,.241.03.251.543.251a1.249,1.249,0,0,0,.683-.131,2.361,2.361,0,0,1,1.418-.2,1.256,1.256,0,0,1,.693.391.859.859,0,0,0,.654.342.512.512,0,0,1,.492.251c.141.222.231.252.754.252.443,0,.614-.04.654-.151.07-.161.542-.211.7-.07a3.335,3.335,0,0,0,.654.311,3.113,3.113,0,0,1,.9.573.849.849,0,0,0,.764.342,2.44,2.44,0,0,1,1.467.613.79.79,0,0,0,.6.192,1.591,1.591,0,0,1,.755.2,1.575,1.575,0,0,0,.7.2,1.783,1.783,0,0,1,.663.151,1.325,1.325,0,0,0,.422.15,2.692,2.692,0,0,0,.945-.895,15.356,15.356,0,0,1,.754-1.628.367.367,0,0,1,.271-.191c.221,0,.232-.1.04-.352-.13-.181-.151-.181-.3-.02-.211.211-.623.221-.7.02a.244.244,0,0,0-.212-.151.986.986,0,0,1-.412-.161,3.226,3.226,0,0,0-1.248-.362c-.08,0-.462.05-.853.12s-1.116.141-1.629.171l-.924.04-.07-.261a2.541,2.541,0,0,1,.09-.885,7.459,7.459,0,0,0,.191-.875c.03-.232.08-.261.583-.3.713-.07.964-.221,1.045-.613.09-.483.222-.584.885-.654.583-.071.884-.232.884-.493,0-.15.422-.452.633-.452a.441.441,0,0,0,.272-.15,1.486,1.486,0,0,1,.512-.272,1.092,1.092,0,0,0,.895-.934c0-.272.05-.342.392-.5a5.466,5.466,0,0,0,1.106-.895,3.313,3.313,0,0,1,1.126-.865,4.823,4.823,0,0,0,1.378-1.085,7.462,7.462,0,0,1,1.548-1.227,2.842,2.842,0,0,0,.764-.5c.211-.251.582-.291,1.809-.151.664.071.765.061,1.026-.14.362-.262.574-.271.844-.02a4.137,4.137,0,0,0,2.221.512c.091-.15-.04-.5-.19-.5m-44.644-4.222a.192.192,0,0,1,.161-.1.093.093,0,0,1,.091.1c0,.05-.071.1-.161.1s-.12-.05-.091-.1m-5.98,2.03c0-.091.211-.312.482-.492.915-.623.935-.342.01.322-.4.291-.492.322-.492.17m1.337,12.143a2.679,2.679,0,0,1-.633-.743c0-.172.312-.02.493.231.211.3.271.512.14.512m2.614,1.176a.762.762,0,0,1-.3,0c-.1-.03-.04-.051.121-.051s.241.02.181.051m9.148-6.715a.432.432,0,0,0-.352-.06,4.931,4.931,0,0,0-1.487,1.367.634.634,0,0,1-.574.513,1.02,1.02,0,0,0-.482.161c-.231.151-.271.151-.5,0-.141-.09-.3-.14-.352-.11-.161.1-.111.412.1.6a.674.674,0,0,1,.2.261,1.668,1.668,0,0,1-.753.071c-.684-.02-.775.009-1.036.25a2.05,2.05,0,0,1-.774.382c-.623.161-.714.231-.795.573-.04.181-.231.392-.613.643a3.869,3.869,0,0,1-.643.382c-.05,0-.161.111-.242.241a2.185,2.185,0,0,1-1.83.322c-.312-.081-.623-.743-.7-1.478-.071-.633-.061-.663.191-.824a1.051,1.051,0,0,1,.4-.171,3.979,3.979,0,0,0,.834-.341c.372-.191.915-.422,1.186-.523a4.285,4.285,0,0,0,.6-.241,1.528,1.528,0,0,1,.382-.14c.15-.031.271-.131.271-.212s.211-.241.482-.351.553-.252.643-.3a.771.771,0,0,1,.332-.1.776.776,0,0,0,.332-.1,11.207,11.207,0,0,1,1.85-.6.441.441,0,0,0,.282-.15.54.54,0,0,1,.361-.151.417.417,0,0,0,.291-.1c.03-.061.171-.1.292-.1a.539.539,0,0,0,.361-.151.487.487,0,0,1,.312-.15.96.96,0,0,0,.372-.091,10.653,10.653,0,0,1,1.026-.442,1.193,1.193,0,0,1,.181-.061c.02-.01.009.121-.03.271-.04.221,0,.332.251.573a1.262,1.262,0,0,1,.3.372c0,.12-.543.1-.674-.03m1.408-.422c-.172.061-.533-.341-.473-.513.05-.13.111-.121.352.061.291.221.332.381.121.452m2.513-10.092c-.231-.02-.332.02-.382.161-.081.271-.422.553-.5.422a.288.288,0,0,0-.231-.11c-.121,0-.222.181-.352.583s-.251.613-.4.674c-.241.11-.371.512-.442,1.377-.03.4-.09.583-.181.583a.262.262,0,0,1-.2-.1c-.121-.2-.362-.1-.412.171-.07.372-.251.6-.493.643-.3.06-.3.513-.01.985.311.493.322.623.06.785-.171.11-.18.17-.08.452a1.8,1.8,0,0,0,.211.463.156.156,0,0,1-.01.241.771.771,0,0,0-.121.462v.342l-.332-.291a2.228,2.228,0,0,0-1.348-.714c-.25.03-.281.081-.311.422a.911.911,0,0,0,.341.9c.081.03.242-.061.373-.2l.23-.241.281.291c.162.161.252.342.222.4a8.1,8.1,0,0,1-2.121.885,3.6,3.6,0,0,0-.573.3,1.7,1.7,0,0,1-.583.231,1.013,1.013,0,0,0-.382.09,5.794,5.794,0,0,1-.623.262c-.251.1-.542.211-.654.251-.693.271-.864.322-1,.261a.723.723,0,0,0-.433.061c-.261.1-.5.2-.824.322a2.014,2.014,0,0,0-.3.151c-.081.05-.513.262-.955.462s-.954.452-1.146.543-.592.312-.9.482c-.713.433-.874.423-1.065-.039-.13-.312-.141-.533-.04-1.479a3.726,3.726,0,0,1,.613-2.11c.221-.241.231-.423.03-.5-.131-.04-.121-.121.05-.513a5.888,5.888,0,0,1,.452-.824,1.572,1.572,0,0,0,.252-.7,2.408,2.408,0,0,1,.211-.784c.211-.452.824-1.056,1.065-1.056.2,0,.433-.3.433-.563,0-.351,1.216-1.527,1.96-1.9a4.519,4.519,0,0,0,.854-.523,1.017,1.017,0,0,1,.332-.232,1.532,1.532,0,0,0,.392-.211c.231-.17.341-.191.523-.111.2.091.3.02.965-.643a5.077,5.077,0,0,1,.824-.744,1.164,1.164,0,0,0,.362-.181c.814-.553,1.537-1.026,1.588-1.026a1.585,1.585,0,0,0,.372-.231,11.155,11.155,0,0,1,1.076-.674c.191-.11.492-.292.653-.4s.442-.271.6-.362a1.5,1.5,0,0,0,.352-.241,6.083,6.083,0,0,1,1.156-.7c.221-.12.684-.423,1.035-.664a5.051,5.051,0,0,1,.714-.442.338.338,0,0,0,.2-.141,1.735,1.735,0,0,1,.442-.3c.181-.09.392-.2.473-.251a4.454,4.454,0,0,1,1.508-.583c.371-.04.492-.111.622-.332a2.22,2.22,0,0,1,.895-.643,7.373,7.373,0,0,0,.885-.5,13.991,13.991,0,0,1,2.634-1.307.828.828,0,0,0,.362-.1c.15-.15.332-.04.332.191,0,.212-.09.3-.482.482a9.3,9.3,0,0,0-2.122,1.659c-.542.522-.572.533-1,.473s-.452-.051-.874.412a1.861,1.861,0,0,0-.442.633,1.933,1.933,0,0,1-.834,1.015,1.3,1.3,0,0,0-.5.483c-.221.331-.341.422-.573.422a.644.644,0,0,0-.543.332,1.206,1.206,0,0,0-.262.483c0,.2-.542.482-.723.381-.1-.06-.211-.029-.312.091a5.876,5.876,0,0,0-.492,1.729c-.03.212-.081.252-.352.232m7.73,16.093c-.12.071-.522-.04-.522-.15s.473-.121.553,0a.111.111,0,0,1-.03.15m3.277,1.447c-.594-.01-1.226-.231-1.126-.392a2.752,2.752,0,0,1,1.508.12c.25.211.15.282-.382.271m6.182-8.917a3.254,3.254,0,0,0-.814.7,2.856,2.856,0,0,1-.643.593,2.634,2.634,0,0,0-.623.452,2.784,2.784,0,0,1-.633.453,11.327,11.327,0,0,0-2.03,1.467.978.978,0,0,0-.212.5.416.416,0,0,1-.22.352,1.547,1.547,0,0,0-.433.352,4.372,4.372,0,0,1-.854.583c-.6.312-.654.361-.684.7s-.049.361-.362.361a5.265,5.265,0,0,1-1.819-.392,6.523,6.523,0,0,0-.975-.362,2.447,2.447,0,0,1-.935-.5,1.677,1.677,0,0,0-.463-.351,3.415,3.415,0,0,1-1.276-.895,2.794,2.794,0,0,1,1.407-.5.529.529,0,0,0,.332-.11c.03-.06.17-.1.312-.1a.974.974,0,0,0,.422-.1c.091-.05.352-.171.574-.262a7.575,7.575,0,0,0,2.061-1.518.633.633,0,0,1,.452-.332c.231,0,.7-.452,1.146-1.116a2.744,2.744,0,0,1,1.227-.9,1.241,1.241,0,0,0,.442-.191c.171-.1.624-.352,1.006-.543a3.512,3.512,0,0,1,.925-.362,2.549,2.549,0,0,1,.854.513,6.226,6.226,0,0,0,1.961,1.1c.241,0,.14.3-.141.412m4.3-22.447a3.488,3.488,0,0,0-.181.423c-.061.14-.182.422-.271.633a2.141,2.141,0,0,0-.161.7c0,.482-.181.654-.754.7a11.12,11.12,0,0,0-2,.372,3.476,3.476,0,0,1-.854.1c-.634,0-.814.111-.814.513,0,.3-.172.412-.7.433a1.769,1.769,0,0,0-.753.292,1.955,1.955,0,0,1-.483.271,1.4,1.4,0,0,0-.412.251,1.5,1.5,0,0,1-.412.251.759.759,0,0,0-.291.191,6.432,6.432,0,0,1-.895.553,9.041,9.041,0,0,0-1.2.754,2,2,0,0,1-.684.412,2.831,2.831,0,0,0-1.377,1.216.788.788,0,0,1-.141.352.478.478,0,0,0-.091.331.636.636,0,0,1-.11.382,3.005,3.005,0,0,0-.121,1c-.01.764.02.945.212,1.246a4.4,4.4,0,0,1,.623,1.317c0,.221.282.443.755.593.221.071.573.2.784.282a3.125,3.125,0,0,0,1.86-.14c.2-.061.231-.04.2.161-.02.181-.181.3-.683.513a4.768,4.768,0,0,0-1.1.653,6.015,6.015,0,0,1-2,1.246.741.741,0,0,0-.361.15.758.758,0,0,1-.343.151,1.206,1.206,0,0,0-.452.221,6.268,6.268,0,0,1-.723.433c-.262.13-.412.282-.433.432-.039.282.02.282.985-.05a2.865,2.865,0,0,1,.865-.211c.12.131-.081.493-.332.593-.181.07-.241.151-.2.281.03.151-.021.212-.222.261a2.238,2.238,0,0,0-.582.312.633.633,0,0,0-.333.593c0,.272-.07.392-.352.613a1.817,1.817,0,0,0-.482.533c-.5.934-.753,1.3-.985,1.367a.589.589,0,0,0-.291.312c-.081.191-.171.241-.473.241a.705.705,0,0,1-.633-.312l-.251-.312-1.056.271c-1.4.362-1.618.372-1.769.05a3,3,0,0,1-.191-.684c-.061-.371-.049-.421.131-.421a.485.485,0,0,0,.322-.151.434.434,0,0,1,.241-.15c.15-.01.663-.463.663-.593,0-.161-.182-.222-.372-.131a6.227,6.227,0,0,1-1.106.392c-.212.05-.232.02-.232-.413,0-.4.031-.482.242-.563a.676.676,0,0,0,.3-.191,19.489,19.489,0,0,0,.433-2.2.734.734,0,0,1,.14-.381.257.257,0,0,0,.09-.2,14.52,14.52,0,0,1,2.383-4.01c.051-.061.553-.734,1.127-1.508a13.029,13.029,0,0,1,3.477-3.528c.614-.413,1.428-1.006,1.81-1.317a9.283,9.283,0,0,1,2.2-1.437c.382,0,1.216-.683,1.216-1.006a2.439,2.439,0,0,1,1.176-.8.283.283,0,0,1,.221.091c.1.161.423.01.775-.352a1.361,1.361,0,0,1,.422-.342,1.509,1.509,0,0,0,.412-.251,1.292,1.292,0,0,1,.443-.251,3.537,3.537,0,0,0,.612-.261c.433-.232.513-.312.513-.553s.04-.291.242-.291c.131,0,.261-.03.281-.081a3.959,3.959,0,0,1,1.609-.513,2.255,2.255,0,0,0,.643-.141c.111-.11.342-.081.342.03a.793.793,0,0,1-.091.281" transform="translate(-101.269 -123.842)" fill="#253d80"/><path d="M172.512,197.637c-.462.492-.512.7-.191.7a2.471,2.471,0,0,0,1.035-1.046c0-.311-.372-.16-.844.342" transform="translate(-123.732 -159.13)" fill="#253d80"/><path d="M144.209,219.713c.131.02.221-.02.231-.1s.03-.684.04-1.357a4.216,4.216,0,0,0-.06-1.287c-.05-.04-.11,0-.14.071a4.257,4.257,0,0,0-.332,1.889c.03.694.05.755.261.785" transform="translate(-103.753 -173.184)" fill="#253d80"/><path d="M337.521,226.5c-.09,0-.192-.04-.774-.332a1.76,1.76,0,0,0-.623-.171,1.09,1.09,0,0,1-.573-.241,5.964,5.964,0,0,0-1.739-.733,1.067,1.067,0,0,1-.4-.181,1.812,1.812,0,0,0-.7-.181,4.843,4.843,0,0,1-1.156-.312,3.266,3.266,0,0,0-.985-.261c-.362,0-.382.02-.352.271.02.221.1.3.4.382a1.491,1.491,0,0,1,.443.17.356.356,0,0,0,.251.081,1.778,1.778,0,0,1,.513.17c.612.3.683.332.864.332a3.78,3.78,0,0,1,.723.212,4.7,4.7,0,0,0,.835.261c.15.029.271.09.271.14s.1.091.23.091a.8.8,0,0,1,.413.15.862.862,0,0,0,.422.151c.132,0,.262.04.292.1a.355.355,0,0,0,.261.1,1,1,0,0,1,.422.121,1.54,1.54,0,0,0,.371.14,5.466,5.466,0,0,1,.654.181c.643.2.754.2.754-.02a1.443,1.443,0,0,0-.815-.623" transform="translate(-235.836 -178.247)" fill="#253d80"/><path d="M366.128,235.866c-.312-.352-.512-.372-1.116-.111-.523.242-.574.352-.363.864.242.583.524.845.915.845.271,0,.372-.06.583-.4.322-.513.322-.8-.019-1.2" transform="translate(-260.179 -186.392)" fill="#253d80"/><path d="M295.327,139.994c-2.086-1.564-4.343-.036-4.343-.217,0-.292.1-.324.8-.414a2.726,2.726,0,0,0,.9-.242,6.341,6.341,0,0,1,1.919-.613,2.04,2.04,0,0,0,.7-.241,4.8,4.8,0,0,1,2.08-.713,2.282,2.282,0,0,0,.755-.2,2.227,2.227,0,0,1,.583-.2c.091,0,.171-.04.171-.1,0-.151-.5-.242-.634-.111a.47.47,0,0,1-.291.111.342.342,0,0,0-.272.191c-.08.15-.261.2-.834.251-.4.04-.854.07-1,.07-.182,0-.292.06-.333.191a.306.306,0,0,1-.231.2c-.13,0-1.689.131-2.4.192a.177.177,0,0,0-.131.181c-.01.281-.573.5-1.206.462a5.014,5.014,0,0,0-2.182.081,3.369,3.369,0,0,1-1.055.493,2.058,2.058,0,0,0-.543.351l-.423.352" transform="translate(-205.445 -116.401)" fill="#253d80"/><path d="M340.31,133.772a.853.853,0,0,0,.8,0c.04-.06-.121-.1-.4-.1s-.443.04-.4.1" transform="translate(-242.998 -114.127)" fill="#253d80"/><path d="M330.17,135.259a.81.81,0,0,1-.664.02c-.322-.121-.512,0-.322.191a3.311,3.311,0,0,0,1.981-.13c.1-.151-.624-.212-1-.081" transform="translate(-235.059 -115.203)" fill="#253d80"/><path d="M194.1,412.129H13.78a7.024,7.024,0,0,0-7,7v32.185a7.023,7.023,0,0,0,7,7H64.15v-1.647H13.78a5.362,5.362,0,0,1-5.356-5.356V419.132a5.363,5.363,0,0,1,5.356-5.356H194.1a5.363,5.363,0,0,1,5.356,5.356v32.185a5.362,5.362,0,0,1-5.356,5.356H143.725v1.647H194.1a7.023,7.023,0,0,0,7-7V419.132a7.024,7.024,0,0,0-7-7" transform="translate(116.694 -384.456)" fill="#253d80"/><path d="M125.813,425.665a1.233,1.233,0,0,0-1.074.65l-.246.513-1.028-.513a15.541,15.541,0,0,0-2.235-.9,12.8,12.8,0,0,0-6.174.044c-4.808,1.655-8.833,7.044-9.929,13.328-1.342,7.469,3.824,14,11.026,14a13.233,13.233,0,0,0,3.063-.359,15.739,15.739,0,0,0,7.984-5.857l.938-1.343-1.14-.849c-.984-.716-1.185-.783-1.343-.492a16.918,16.918,0,0,1-2.392,2.817,11.954,11.954,0,0,1-4.27,2.414,4.093,4.093,0,0,1-2.572.113c-3.622-.8-5.233-3.69-4.987-8.855.269-5.3,2.348-9.861,5.165-11.361a6,6,0,0,1,4.563-.089,10.815,10.815,0,0,1,4.516,5.926l.515,1.431.805-.156c1.274-.225,1.587-.336,1.587-.628-.023-.536-1.722-9.771-1.812-9.883a2.387,2.387,0,0,0-.961.044" transform="translate(70.468 -390.548)" fill="#253d80"/><path d="M230.865,436.3c-.278-5.456-5.2-10.21-8.415-10.9A13.689,13.689,0,0,0,210,429.223a15.926,15.926,0,0,0-4.606,11.748c.017,6.094,3.578,10.669,9.131,11.764,4.168.816,7.794-.344,11.194-3.563a16.154,16.154,0,0,0,5.145-12.874m-6.829,4.281c-.917,3.758-2.663,6.731-4.576,7.86a4.944,4.944,0,0,1-5.489-.2c-1.422-1.193-2.435-4.967-2.173-7.941.522-5.129,2.761-9.753,5.457-11.191a6.136,6.136,0,0,1,4.117-.131,6.04,6.04,0,0,1,2.759,3.448,18.835,18.835,0,0,1-.1,8.152" transform="translate(23.14 -390.575)" fill="#253d80"/><path d="M34.8,429.324l1.051-.134.134-1.051c.088-.561.2-1.207.269-1.431.089-.358-.313-.38-6.15-.38H23.84l-.246,1.364a5.993,5.993,0,0,0-.134,1.543,2.547,2.547,0,0,0,.984.313,2.338,2.338,0,0,1,1.431.782c.559.672.694,1.253,3.891,17.957l.85,4.429h4.137l5.121-10.376c2.8-5.7,5.39-10.736,5.725-11.2a4.6,4.6,0,0,1,2.751-1.679c.648,0,.871-.4,1.028-1.856l.156-1.274H39.941l-.157,1.364c-.179,1.454-.022,1.766.851,1.766a1.131,1.131,0,0,1,1.274,1.185c0,.447-1.207,3.288-3.265,7.648-1.789,3.8-3.332,7.023-3.422,7.11-.179.18-2.482-13.461-2.482-14.645,0-.784.693-1.255,2.058-1.432" transform="translate(108.844 -391.143)" fill="#253d80"/><path d="M84.384,431.626a2.586,2.586,0,0,1,1.968-2.079c1.5-.334,1.453-.267,1.722-2.169l.134-1.051H75.931l-.2,1.453-.223,1.456.782.132c1.118.2,1.587.47,1.812,1.1.268.694-2.237,16.927-2.751,17.935a2.666,2.666,0,0,1-2.393,1.184c-.671,0-.738.134-1.007,2.058l-.156,1.074h6.038c6.8,0,6.149.179,6.418-1.812l.157-1.03-1.029-.29c-1.386-.379-1.566-.648-1.409-2.193.179-1.856,2.125-14.512,2.415-15.764" transform="translate(86.069 -391.143)" fill="#253d80"/><path d="M179.505,430.464l-1.564-4.137H158.195l-1.655,3.712c-.916,2.057-1.677,3.8-1.723,3.891s.4.425.962.738l1,.582.874-1.3a11.372,11.372,0,0,1,4.562-4c1.3-.471,2.839-.759,2.839-.536,0,.089-.692,4.36-1.52,9.483-1.7,10.487-1.61,10.2-3.645,10.688a2.978,2.978,0,0,1-1.274.134c-.112-.067-.269.334-.336.872-.089.559-.2,1.251-.29,1.564l-.134.559h13.216l.134-1.074c.067-.581.179-1.274.246-1.564.09-.448.023-.492-1.007-.492a2.285,2.285,0,0,1-1.7-.514l-.582-.493,1.475-9.481c.805-5.233,1.455-9.594,1.455-9.706,0-.268,1.453,0,2.594.515a7.221,7.221,0,0,1,3.555,3.711c.536,1.1.94,1.635,1.141,1.567a9.242,9.242,0,0,1,1.161-.336l.851-.246Z" transform="translate(46.965 -391.143)" fill="#253d80"/><path d="M281.583,449.587a4.762,4.762,0,0,1-1.389-.441c-.949-.427-1.03-.557-2.779-4.183-2.319-4.852-2.287-4.737-1.78-4.9a8.449,8.449,0,0,0,5.832-6.7,5.518,5.518,0,0,0-3.334-6.438c-.964-.457-1.439-.474-9.655-.539-9.787-.066-8.757-.294-9.02,1.894l-.162,1.193h.833c1.079,0,1.992.866,1.814,1.731-.066.344-.7,4.232-1.372,8.659-.915,5.9-1.357,8.2-1.65,8.61a2.6,2.6,0,0,1-2.173,1.112c-.671,0-.7.081-.851,1.029-.066.588-.13,1.274-.13,1.569v.538h11.813l.131-.62c.423-2.27.423-2.515-.066-2.515-.9,0-2.011-.622-2.142-1.178a19.507,19.507,0,0,1,.31-3.74c.261-1.733.458-3.268.458-3.366,0-.114.638-.214,1.422-.214h1.4l5.1,11.632h3.627c4.085,0,3.693.231,4-2.073.131-.949.115-1.062-.244-1.062m-6.831-14.982a3.756,3.756,0,0,1-2.321,2.369,6.226,6.226,0,0,1-3.315.538h-2.206l.131-.621c.064-.343.344-1.894.588-3.5.506-3.252.669-3.643,1.519-3.84a4.076,4.076,0,0,0,.817-.228,9.313,9.313,0,0,1,3.627.588c1.618.718,2.107,2.63,1.16,4.689" transform="translate(-0.588 -391.153)" fill="#253d80"/><path d="M323.795,429.481l1.1-.134.246-1.52.246-1.5H312.971l-.156,1.049c-.067.6-.2,1.275-.248,1.521-.088.38.046.514.874.715,1.632.447,2.147,1.185,4.6,6.91l2.259,5.255-.469,2.84a31.291,31.291,0,0,1-.693,3.487,3.467,3.467,0,0,1-2.685,1.476c-.536,0-.6.112-.826,1.12-.469,2.214-1.074,2.012,5.882,2.012h6.128l.133-.626c.492-2.506.559-2.348-1.051-2.617a1.667,1.667,0,0,1-1.184-.692c-.336-.515-.336-.784.133-3.914l.492-3.378,2.594-3.376c4.787-6.307,6.754-8.274,8.565-8.565.782-.134.826-.179.984-1.184.067-.561.2-1.253.269-1.543l.112-.492-4.987.044-4.987.068-.157.782c-.469,2.437-.492,2.235.336,2.235,2.146,0,2.012.605-1.14,5.167a26.893,26.893,0,0,1-2.774,3.6c-.067-.09-.6-1.364-1.207-2.841-.582-1.475-1.229-3.152-1.475-3.734-.4-1.005-.4-1.051,0-1.543a2.089,2.089,0,0,1,1.5-.626" transform="translate(-27.33 -391.144)" fill="#253d80"/><path d="M173.99,485.883c-.492-.515-1.141-.448-1.766.2a1.3,1.3,0,0,0-.134,1.99c1.163,1.051,3.019-1.074,1.9-2.193" transform="translate(39.018 -419.035)" fill="#253d80"/><path d="M150.928,486.781c0-.425-.134-.425-2.058-.09-1.051.18-1.274.313-1.364.739-.067.4,0,.535.336.535a.614.614,0,0,1,.536.336,32.179,32.179,0,0,1-.559,4.45c-.38,2.281-.693,4.228-.693,4.362s.426.246.986.246h.984l.469-1.545c.581-1.9,1.028-2.369,1.253-1.318.513,2.415,2.146,3.443,3.979,2.5,1.163-.6,1.3-.738,1.007-1.208-.2-.312-.38-.356-.805-.2-.849.312-1.521-.247-1.945-1.635-.471-1.609-.426-2.123.223-2.548a.921.921,0,0,1,1.14-.112c.761.336.917.313,1.431-.2.872-.872-.246-1.766-1.766-1.343a6.2,6.2,0,0,0-3.176,2.438,7.259,7.259,0,0,1-.984,1.1,24.924,24.924,0,0,1,.469-3.088c.291-1.655.537-3.2.537-3.42" transform="translate(50.586 -419.463)" fill="#253d80"/><path d="M207.623,496.326l.559.491a2.533,2.533,0,0,0,2.952.068c.916-.559.828-1.007-.2-1.007-.492,0-.759-.112-.8-.334-.045-.179.266-2.325.669-4.763.761-4.383.761-4.406.292-4.383a25.383,25.383,0,0,0-2.952.515,1.857,1.857,0,0,0-.179.515c-.113.379-.067.514.156.514.826,0,.849.515.177,4.495Z" transform="translate(22.09 -419.436)" fill="#253d80"/><path d="M248.335,490.168a3.015,3.015,0,0,0-3.22.032c-.686.523-.669.605-.244-1.813.179-1.062.327-1.928.327-1.977a6.971,6.971,0,0,0-2.009.278c-.964.212-1.242.359-1.291.735a.456.456,0,0,0,.376.571c.6.164.6.18-.2,4.853-.357,2.156-.669,4.05-.669,4.182,0,.212.359.294,1,.294.769,0,1.013-.082,1.013-.326,0-.311.065-.311.671,0a3.218,3.218,0,0,0,2.613.081,5.382,5.382,0,0,0,2.976-4.052,4.3,4.3,0,0,0-1.34-2.858m-1.161,3.429c-.376,1.814-1.943,3.056-2.924,2.336-.393-.276-.409-.375-.082-1.829.426-1.748.9-2.679,1.569-3.022.638-.278.669-.278,1.079.032.507.425.621,1.225.359,2.482" transform="translate(6.178 -419.431)" fill="#253d80"/><path d="M133.135,492.9c-.515-.826-1.229-1.184-3.489-1.745a6.089,6.089,0,0,1-1.989-.782c-.425-.424-.425-.424.021-1.028.4-.538.65-.626,1.722-.693a2.073,2.073,0,0,1,2.035.626,3.576,3.576,0,0,1,.917,1.139.676.676,0,0,0,.716.425c.559,0,.581-.044.425-1.028-.067-.58-.134-1.341-.134-1.676,0-.74-.559-.895-1.007-.291-.223.334-.312.334-1.005-.022a6.33,6.33,0,0,0-1.991-.47c-2.369-.179-4.225,1.028-4.427,2.84-.179,1.812.671,2.638,3.4,3.31,2.482.626,3.153,1.474,2.012,2.594-1.207,1.228-4,.446-4.9-1.387-.469-.961-.692-1.1-1.207-.782-.223.156-.223.513,0,1.968.269,1.543.358,1.766.805,1.833.335.044.492-.044.492-.29,0-.292.112-.359.515-.225,2.3.717,2.884.807,4,.559,2.928-.626,4.315-2.84,3.086-4.875" transform="translate(61.447 -419.882)" fill="#253d80"/><path d="M169.648,499.878a2.831,2.831,0,0,0,3.086,0c.917-.559.828-.985-.246-1.074-.984-.089-.963.023-.38-3.4.246-1.409.448-2.594.448-2.639a17.166,17.166,0,0,0-3.488.492,2.215,2.215,0,0,0-.18.515c-.112.381-.067.515.157.515.761,0,.872.558.514,2.615-.446,2.482-.446,2.437.09,2.974" transform="translate(40.363 -422.43)" fill="#253d80"/><path d="M192.881,493.661c.423.044.536.246.625.962.112.827.179.894.851.961.893.088,1.385-.269,1.385-.961a1.455,1.455,0,0,0-.917-1.567,5.6,5.6,0,0,0-3.891.09,6.152,6.152,0,0,0-2.594,2.64,4.243,4.243,0,0,0,.223,3.107c1.074,1.745,3.87,1.856,6.218.246.671-.446.692-.513.357-.871-.334-.38-.4-.38-1.095.067-2.506,1.541-4.026.646-3.445-2.035.336-1.456,1.454-2.751,2.282-2.639" transform="translate(31.265 -422.43)" fill="#253d80"/><path d="M221.87,500.093a3.224,3.224,0,0,0,2.727-.223c.872-.4,1.007-.4,1.32-.113a2.242,2.242,0,0,0,2.3.359c1.453-.426,1.766-1.366.446-1.366-.334,0-.669-.133-.736-.289a14.43,14.43,0,0,1,.313-2.506c.6-3.353.625-3.286-.626-3.2l-1.074.067-.425,2.728c-.4,2.438-.492,2.751-.963,2.953-.782.356-1.588.288-1.833-.158a6.567,6.567,0,0,1,.2-2.615c.246-1.23.425-2.417.448-2.64,0-.4-.492-.469-1.231-.157a3.72,3.72,0,0,1-1.251.2c-.694.023-.828.113-.918.582-.067.358-.021.559.158.559.716,0,.805.581.448,2.661-.38,2.258-.269,2.8.693,3.153" transform="translate(16.005 -422.421)" fill="#253d80"/><path d="M50.826,149a46.072,46.072,0,0,1,8.534-13.943,85.552,85.552,0,0,0-10.745-10.341q-17.3-14.136-21.642-20Q22.5,98.6,22.5,93.336a11.421,11.421,0,0,1,4.007-9.02,14.474,14.474,0,0,1,9.81-3.485,14.259,14.259,0,0,1,10.331,3.817q3.747,3.679,4.079,10.063l.126,2.245h.3l.27-2.569q1.051-11.71,7.941-18.875c-.566-.6-1.168-1.177-1.8-1.725q-8.221-7.3-21.517-7.3-12.425,0-20.852,7.043Q5.911,81.168,5.915,93.6q0,11.644,10.071,22.9,3.881,4.407,17.564,15.6a88.008,88.008,0,0,1,12.829,12.3H20.721L5.783,144.4l0,15.781h43.6V157.1a21.876,21.876,0,0,1,1.447-8.1" transform="translate(-5.78 -66.483)" fill="#253d80"/></svg>