<svg xmlns="http://www.w3.org/2000/svg" xmlns:xlink="http://www.w3.org/1999/xlink" width="99.912" height="100.101" viewBox="0 0 99.912 100.101"><defs><linearGradient id="a" x1="1" y1="0.09" x2="0" y2="1" gradientUnits="objectBoundingBox"><stop offset="0" stop-color="#253d80"/><stop offset="1" stop-color="#5b97ff"/></linearGradient><linearGradient id="b" x1="0.5" x2="0.5" y2="1" gradientUnits="objectBoundingBox"><stop offset="0" stop-color="#add036"/><stop offset="1" stop-color="#9ebe34"/></linearGradient></defs><g transform="translate(-1076.528 -1209.348)"><path d="M52.814,3.38a69.3,69.3,0,0,1-8.732.739c-5.07,0-9.683-1.2-14.348-2.148A73.231,73.231,0,0,0,14.929,0C4.612,0,1.109,2.13.739,2.359L0,2.87V67.6H8.45V36.23a53.4,53.4,0,0,1,6.5-.352c4.806,0,9.3,1.76,14.049,2.729a75.508,75.508,0,0,0,15.3,2.025,69.869,69.869,0,0,0,8.521-.7c1.32-.158,2.465-.3,3.521-.475V2.852C55.455,3.028,54.134,3.222,52.814,3.38Z" transform="translate(1076.528 1209.348)" fill="url(#a)"/><path d="M68.824,15.294a7.647,7.647,0,1,0-7.647-7.647A7.649,7.649,0,0,0,68.824,15.294Zm11.63,56.733a3.808,3.808,0,0,0-5.4,0,6.481,6.481,0,0,1-7.185,1.386L46.233,62.229l7.838-11.758a7.648,7.648,0,0,0-.956-9.655l-6.436-6.452L29.632,25.9a10.164,10.164,0,0,0,2.82,8.667L44.417,46.552,37.1,57.514,5.575,41.215A3.819,3.819,0,1,0,2.07,48L64.507,80.264a14.03,14.03,0,0,0,5.911,1.29,14.183,14.183,0,0,0,10.037-4.142,3.817,3.817,0,0,0,0-5.385ZM19.117,14.593l-1.832,3.585a6.238,6.238,0,0,0,6.819-.765l7.52,3.728c-.016.016-.016.032-.032.048l18.242,9.049L55,28.167l1.02,3.043a7.584,7.584,0,0,0,3.824,4.413l9.256,4.62a5.094,5.094,0,1,0,4.556-9.113l-8.3-4.158-2.724-8.157C61.336,14.96,56.111,9.8,49.165,12.57L36.228,17.748l-9.957-4.939a6.176,6.176,0,0,0-3.33-5.672l-1.768,3.457h-.032L15.66,9.479a.814.814,0,0,0-.8.271.833.833,0,0,0,.08,1.179l4.174,3.664Z" transform="matrix(0.966, -0.259, 0.259, 0.966, 1076.547, 1230.674)" fill="url(#b)"/></g></svg>