<svg xmlns="http://www.w3.org/2000/svg" width="48.754" height="48.754" viewBox="0 0 48.754 48.754"><path d="M21.306,12.45,14.723,1.48A3.047,3.047,0,0,0,12.11,0H1.526A1.524,1.524,0,0,0,.278,2.4l10.6,15.137A19.707,19.707,0,0,1,21.306,12.45ZM47.228,0H36.644a3.047,3.047,0,0,0-2.613,1.48L27.448,12.45a19.713,19.713,0,0,1,10.433,5.083L48.476,2.4A1.524,1.524,0,0,0,47.228,0ZM24.377,15.236A16.759,16.759,0,1,0,41.136,31.995,16.759,16.759,0,0,0,24.377,15.236Zm8.81,14.975L29.575,33.73l.854,4.973a1.093,1.093,0,0,1-1.585,1.151l-4.467-2.347-4.466,2.347A1.093,1.093,0,0,1,18.326,38.7l.854-4.973L15.568,30.21a1.094,1.094,0,0,1,.6-1.865l4.993-.728L23.4,23.092a1.1,1.1,0,0,1,1.963,0l2.231,4.525,4.993.728A1.094,1.094,0,0,1,33.187,30.21Z" transform="translate(0 0)" fill="#fff"/></svg>