<svg xmlns="http://www.w3.org/2000/svg" width="22.842" height="22.845" viewBox="0 0 22.842 22.845">
  <path id="messenger" d="M0,11.078C0,4.711,4.987,0,11.42,0S22.841,4.711,22.841,11.078,17.854,22.156,11.42,22.156a12.464,12.464,0,0,1-3.3-.438.914.914,0,0,0-.609.048l-2.275,1a.914.914,0,0,1-1.285-.809L3.882,19.92a.923.923,0,0,0-.3-.647A10.84,10.84,0,0,1,0,11.078ZM7.918,8.994l-3.35,5.33a.536.536,0,0,0,.78.714l3.607-2.731a.672.672,0,0,1,.828,0l2.665,2a1.718,1.718,0,0,0,2.474-.457l3.35-5.33a.537.537,0,0,0-.78-.714l-3.607,2.731a.658.658,0,0,1-.818,0l-2.665-2a1.713,1.713,0,0,0-2.484.457Z" transform="translate(0.002)" fill="#5b97ff"/>
</svg>
