<svg xmlns="http://www.w3.org/2000/svg" width="38.402" height="30.443" viewBox="0 0 38.402 30.443"><g transform="translate(-1579 -88.26)"><path d="M20.507,15.1a3.8,3.8,0,1,0-3.8-3.8A3.786,3.786,0,0,0,20.507,15.1Zm-10.137,0a3.8,3.8,0,1,0-3.8-3.8A3.786,3.786,0,0,0,10.37,15.1Zm0,2.534c-2.952,0-8.87,1.483-8.87,4.435V25.24H19.24V22.072C19.24,19.12,13.323,17.637,10.37,17.637Zm10.137,0c-.367,0-.786.025-1.229.063a5.347,5.347,0,0,1,2.5,4.372V25.24h7.6V22.072C29.377,19.12,23.46,17.637,20.507,17.637Z" transform="translate(1577.5 80.76)" fill="#add036"/><path d="M23.17,12.053H15.15V4.032A1.783,1.783,0,0,0,13.367,2.25H11.585A1.783,1.783,0,0,0,9.8,4.032v8.02H1.782A1.783,1.783,0,0,0,0,13.835v1.782A1.783,1.783,0,0,0,1.782,17.4H9.8v8.02A1.783,1.783,0,0,0,11.585,27.2h1.782A1.783,1.783,0,0,0,15.15,25.42V17.4h8.02a1.783,1.783,0,0,0,1.782-1.782V13.835A1.783,1.783,0,0,0,23.17,12.053Z" transform="translate(1592.45 91.5)" fill="#253d80"/></g></svg>