<svg xmlns="http://www.w3.org/2000/svg" width="36.934" height="27.258" viewBox="0 0 36.934 27.258"><g transform="translate(-1326.323 -9.7)"><path d="M12.107.563A11.545,11.545,0,1,0,23.652,12.107,11.543,11.543,0,0,0,12.107.563Z" transform="translate(1325.761 13.306)" fill="#add036"/><path d="M26.48,19.262l-5.963-2.555a1.278,1.278,0,0,0-1.491.367L16.386,20.3a19.733,19.733,0,0,1-9.433-9.433l3.226-2.641a1.275,1.275,0,0,0,.367-1.491L7.991.773A1.286,1.286,0,0,0,6.527.033L.99,1.31A1.278,1.278,0,0,0,0,2.556a24.7,24.7,0,0,0,24.7,24.7,1.278,1.278,0,0,0,1.246-.99l1.278-5.537A1.293,1.293,0,0,0,26.48,19.262Z" transform="translate(1336 9.7)" fill="#253d80"/></g></svg>