<svg xmlns="http://www.w3.org/2000/svg" xmlns:xlink="http://www.w3.org/1999/xlink" width="127" height="81.972" viewBox="0 0 127 81.972"><defs><linearGradient id="a" x1="0.217" y1="1" x2="1.214" gradientUnits="objectBoundingBox"><stop offset="0" stop-color="#5b97ff"/><stop offset="1" stop-color="#2e4c80"/></linearGradient><linearGradient id="b" x1="0.5" x2="0.5" y2="1" gradientUnits="objectBoundingBox"><stop offset="0" stop-color="#add036"/><stop offset="1" stop-color="#9dbc32"/></linearGradient></defs><g transform="translate(-1050 -1416.027)"><path d="M11.025,77.708l32.1-32.153,21.4,21.4L110,15.808l-7.543-7.543L64.525,50.9l-21.4-21.4L3,69.683Z" transform="translate(1047 1407.762)" fill="url(#a)"/><path d="M40.538,14.308a7.154,7.154,0,1,0-7.154-7.154A7.154,7.154,0,0,0,40.538,14.308ZM16.944,47.315,14.738,52.46H4.769a4.769,4.769,0,0,0,0,9.538H16.312a7.139,7.139,0,0,0,6.574-4.336L24.2,54.6l-1.59-.939A14.192,14.192,0,0,1,16.944,47.315ZM57.231,33.383H50.669l-3.884-7.936a14.3,14.3,0,0,0-9.208-7.592L26.983,14.7a14.247,14.247,0,0,0-12.048,2.555L9.023,21.791a4.769,4.769,0,0,0,5.8,7.568l5.915-4.532a4.641,4.641,0,0,1,3.766-.915l2.191.651L21.116,37.588a9.564,9.564,0,0,0,3.92,11.969L37.7,57.034,33.607,70.109a4.769,4.769,0,1,0,9.1,2.85L47.424,57.9A7.184,7.184,0,0,0,44.2,49.791L35.072,44.4l4.666-11.667,3.021,6.175a7.2,7.2,0,0,0,6.425,4.008h8.047a4.768,4.768,0,1,0,0-9.537Z" transform="translate(1115 1421.694)" fill="url(#b)"/></g></svg>