<svg xmlns="http://www.w3.org/2000/svg" width="42.718" height="25.92" viewBox="0 0 42.718 25.92"><g transform="translate(-1692.169 -9.57)"><path d="M175.324,161.4a5.061,5.061,0,0,1-.917-.339.345.345,0,0,0-.307.006c-.2.089-.243.019-.212-.321l.019-.211h.576a1.839,1.839,0,0,0,1.287-.366,1.677,1.677,0,0,0,.532-.7,5.911,5.911,0,0,1,.333-.589c.1-.109.064-.282-.147-.66a6.8,6.8,0,0,1-.538-1.14,1.726,1.726,0,0,0-.231-.474.568.568,0,0,1-.115-.262.294.294,0,0,0-.1-.192.284.284,0,0,1-.1-.166.554.554,0,0,0-.058-.206c-.031-.057-.121-.243-.192-.409-.1-.218-.179-.314-.3-.346-.147-.039-.16-.064-.121-.276a.378.378,0,0,0-.116-.4c-.128-.134-.154-.23-.154-.564-.006-.314-.031-.422-.147-.544-.218-.231-.462-.8-.384-.9a2.378,2.378,0,0,0,.256-.942,1.1,1.1,0,0,1,.077-.4.305.305,0,0,0-.012-.32c-.065-.128-.071-.179-.013-.237a1.132,1.132,0,0,0-.051-.916,1.066,1.066,0,0,1-.128-.416c0-.186.013-.192.3-.192.243,0,.288-.019.269-.116-.012-.077-.09-.115-.257-.128a.572.572,0,0,1-.339-.147.405.405,0,0,0-.238-.121c-.083,0-.115-.052-.115-.179-.006-.244-.166-.416-.6-.647l-.384-.2-1.057.013-1.063.019-.032.365c-.026.289-.064.391-.179.467a.374.374,0,0,0-.141.257c0,.083-.026.173-.065.192a.226.226,0,0,0-.064.166c0,.071-.1.2-.256.3a.971.971,0,0,0-.314.352c-.051.134-.1.173-.179.147-.064-.019-.192-.051-.288-.07s-.25-.045-.339-.064c-.161-.032-.224-.244-.1-.321.039-.019.064-.147.064-.282a.746.746,0,0,1,.1-.365,1.079,1.079,0,0,0,.1-.512c0-.321.019-.4.115-.429.058-.019.224-.083.365-.134.25-.1.224-.1-.743-.1-.9,0-1.019.013-1.159.122a2.742,2.742,0,0,1-.98.39.638.638,0,0,0-.5.321c-.057.1-.192.179-.493.263-.641.172-.929.294-.929.384,0,.045-.116.109-.256.135-.7.134-1.185.346-1.185.512,0,.109-.173.179-.711.288a1.948,1.948,0,0,0-.474.186c-.14.083-.371.2-.518.275a.679.679,0,0,0-.3.218c-.045.115-.487.192-.6.1s-.217-.013-.217.173c0,.1-.039.154-.1.154a.588.588,0,0,0-.212.058,4.508,4.508,0,0,1-.685.173,3.671,3.671,0,0,0-.64.16.279.279,0,0,1-.173.058,4.236,4.236,0,0,0-.749.32c-.513.269-.653.314-.782.263s-.218-.026-.442.109a2.073,2.073,0,0,0-.321.2,1.974,1.974,0,0,1-.275.205,5.132,5.132,0,0,0-.494.4,1.716,1.716,0,0,1-.9.551c-.1,0-.2.026-.217.064a.2.2,0,0,1-.147.064.942.942,0,0,0-.282.09,6.746,6.746,0,0,1-.672.263c-.609.211-.647.243-.672.525-.019.2-.052.237-.276.32-.429.16-.538.166-.7.058a.6.6,0,0,0-.583-.045.463.463,0,0,1-.218.084c-.205.025-.282.371-.084.371.09.006.064.051-.109.2a1.082,1.082,0,0,1-.781.34c-.077-.026-.116,0-.116.071s-.032.1-.109.064c-.269-.115-.384-.1-.672.1-.205.134-.346.186-.436.16a.385.385,0,0,0-.32.1l-.192.141-.122-.148-.122-.147-.237.179c-.186.147-.224.211-.2.333.045.173-.058.365-.4.762-.4.455-.474.493-.7.378-.154-.077-.186-.122-.141-.205a2.715,2.715,0,0,0,.263-.666c0-.1-.122-.244-.205-.244a3.115,3.115,0,0,0-.692,1c0,.147-.2.41-.307.41a3.062,3.062,0,0,0-.455.448c-.423.474-.525.539-.5.3.019-.205-.314-.231-.532-.045a5.2,5.2,0,0,1-.519.359c-.384.231-.4.263-.474.877-.051.41-.115.487-.282.34s-.231-.128-.474.16c-.269.307-.314.448-.211.647a2.762,2.762,0,0,1-.1,1.435c-.032.019-.077-.013-.1-.064-.109-.282-.576.09-.506.4a.647.647,0,0,1-.064.352.838.838,0,0,0-.1.314,3.3,3.3,0,0,0,.512.974c.039.019.064.115.064.2a2.176,2.176,0,0,0,.071.429,6.807,6.807,0,0,1,.2.833c.032.192-.109.185-.2-.007a2.446,2.446,0,0,1-.134-.5,2.485,2.485,0,0,0-.326-1.089c-.084-.141-.2-.352-.25-.468-.141-.326-.25-.262-.25.154a1.033,1.033,0,0,0,.135.583.576.576,0,0,1,.1.378,1.63,1.63,0,0,0,.25.711c.314.614.327.646.186.531-.173-.141-.115.154.064.32a.476.476,0,0,1,.161.263c0,.147.141.25.409.294.206.032.231.058.231.224,0,.135.083.276.3.506a2.562,2.562,0,0,0,.435.4,4.635,4.635,0,0,0,1.057.109l.929.032.032.192c.032.179.051.192.352.211a.887.887,0,0,1,.416.109,1.753,1.753,0,0,0,1.082.4,1.693,1.693,0,0,1,1.076.32.831.831,0,0,0,.3.147c.147,0,.2.3.077.442-.154.173-.128.2.179.2.2,0,.3.032.32.1.032.09.058.09.211,0,.371-.192.577-.243.711-.173a2.2,2.2,0,0,0,.666.058,1.809,1.809,0,0,1,.679.071.672.672,0,0,0,.609-.051.3.3,0,0,1,.186-.071c.128,0,.32-.378.4-.781a.356.356,0,0,0-.1-.384c-.179-.192-.64-.359-.679-.25-.032.09-.55.1-.7.006-.058-.032-.218-.1-.352-.16-.3-.115-.282-.25.038-.276a.679.679,0,0,0,.448-.231A1.794,1.794,0,0,1,151,168a.268.268,0,0,0,.14-.263c0-.153.033-.2.18-.231.1-.019.339-.077.544-.128a3.3,3.3,0,0,1,.647-.089c.282,0,.442-.083.807-.417a.848.848,0,0,1,.807-.25c.192.032.218.064.205.211s.006.166.211.186c.173.013.244.058.269.147.026.109.09.122.506.122a2.034,2.034,0,0,1,.852.16,2.018,2.018,0,0,0,.557.16c.1,0,.192.026.211.064a.253.253,0,0,0,.186.064.41.41,0,0,1,.262.128.37.37,0,0,0,.205.128.086.086,0,0,1,.084.089c0,.051.071.109.16.128a.179.179,0,0,1,.16.2c0,.154.019.16.346.16a.8.8,0,0,0,.435-.083,1.5,1.5,0,0,1,.9-.128.8.8,0,0,1,.442.249.548.548,0,0,0,.416.218.326.326,0,0,1,.314.16c.09.141.147.161.48.161.282,0,.391-.026.417-.1.045-.1.345-.134.448-.044a2.125,2.125,0,0,0,.416.2,1.984,1.984,0,0,1,.577.365.541.541,0,0,0,.487.218,1.555,1.555,0,0,1,.935.391.5.5,0,0,0,.384.122,1.014,1.014,0,0,1,.481.128,1,1,0,0,0,.449.128,1.136,1.136,0,0,1,.423.1.845.845,0,0,0,.269.1,1.715,1.715,0,0,0,.6-.57,9.785,9.785,0,0,1,.48-1.037.234.234,0,0,1,.173-.121c.141,0,.148-.064.026-.224-.083-.115-.1-.115-.192-.013-.134.134-.4.141-.448.013a.155.155,0,0,0-.135-.1.628.628,0,0,1-.262-.1,2.056,2.056,0,0,0-.795-.231c-.051,0-.294.032-.544.077s-.711.09-1.038.109l-.589.026-.045-.166a1.619,1.619,0,0,1,.057-.564,4.754,4.754,0,0,0,.122-.557c.019-.148.051-.166.372-.192.454-.045.614-.141.666-.391.057-.308.141-.372.564-.417.372-.045.563-.148.563-.314,0-.1.269-.288.4-.288a.281.281,0,0,0,.174-.1.947.947,0,0,1,.327-.173.7.7,0,0,0,.57-.6c0-.173.032-.218.25-.32a3.484,3.484,0,0,0,.7-.57,2.111,2.111,0,0,1,.717-.551,3.073,3.073,0,0,0,.878-.692,4.755,4.755,0,0,1,.986-.782,1.811,1.811,0,0,0,.487-.32c.134-.16.371-.186,1.153-.1.423.045.488.039.654-.089.231-.167.366-.173.538-.013a2.636,2.636,0,0,0,1.415.326c.058-.1-.025-.32-.121-.32m-28.448-2.69a.122.122,0,0,1,.1-.064.059.059,0,0,1,.058.064c0,.032-.045.064-.1.064s-.077-.032-.058-.064M143.065,160c0-.058.134-.2.307-.314.583-.4.6-.218.006.2-.256.186-.314.205-.314.109m.852,7.738a1.707,1.707,0,0,1-.4-.474c0-.109.2-.013.314.147.134.192.173.326.089.326m1.665.75a.486.486,0,0,1-.192,0c-.064-.019-.025-.032.077-.032s.154.013.115.032m5.829-4.279a.276.276,0,0,0-.224-.039,3.142,3.142,0,0,0-.948.871.4.4,0,0,1-.366.327.65.65,0,0,0-.307.1c-.147.1-.173.1-.32,0-.09-.057-.192-.09-.224-.07-.1.064-.071.262.064.384a.429.429,0,0,1,.128.166,1.063,1.063,0,0,1-.48.045c-.436-.013-.494.006-.66.159a1.307,1.307,0,0,1-.493.244c-.4.1-.455.147-.506.365-.025.115-.147.25-.391.41a2.465,2.465,0,0,1-.409.244c-.032,0-.1.071-.154.154a1.392,1.392,0,0,1-1.166.205c-.2-.051-.4-.474-.448-.942-.045-.4-.039-.423.121-.525a.67.67,0,0,1,.257-.109,2.536,2.536,0,0,0,.531-.217c.237-.122.583-.269.756-.333a2.727,2.727,0,0,0,.384-.154.974.974,0,0,1,.244-.089c.1-.02.173-.084.173-.135s.134-.154.307-.224.352-.161.41-.193a.491.491,0,0,1,.211-.064.5.5,0,0,0,.212-.064,7.141,7.141,0,0,1,1.179-.384.281.281,0,0,0,.179-.1.344.344,0,0,1,.23-.1.265.265,0,0,0,.186-.064c.019-.039.109-.064.186-.064a.344.344,0,0,0,.23-.1.31.31,0,0,1,.2-.1.612.612,0,0,0,.237-.058,6.785,6.785,0,0,1,.654-.282.761.761,0,0,1,.115-.039c.013-.006.006.077-.019.173-.026.141,0,.211.16.365a.8.8,0,0,1,.192.237c0,.077-.346.064-.429-.019m.9-.269c-.109.039-.34-.217-.3-.327.032-.083.071-.077.224.039.186.141.211.243.077.288m1.6-6.431c-.147-.013-.211.013-.244.1-.052.173-.269.352-.32.269a.184.184,0,0,0-.147-.07c-.077,0-.141.115-.224.371s-.16.391-.256.429c-.154.07-.237.326-.282.877-.019.256-.057.372-.116.372a.167.167,0,0,1-.128-.064c-.077-.128-.231-.064-.262.109-.045.237-.16.384-.314.41-.192.039-.192.327-.006.628s.2.4.038.5c-.109.07-.115.109-.051.288a1.146,1.146,0,0,0,.134.295.1.1,0,0,1-.006.154.491.491,0,0,0-.077.294v.218l-.211-.186a1.42,1.42,0,0,0-.859-.455c-.159.019-.179.051-.2.269a.581.581,0,0,0,.217.577c.051.019.154-.039.238-.128l.147-.154.179.186c.1.1.161.218.141.256a5.158,5.158,0,0,1-1.352.564,2.29,2.29,0,0,0-.365.192,1.084,1.084,0,0,1-.372.147.646.646,0,0,0-.244.058,3.7,3.7,0,0,1-.4.167c-.16.064-.346.134-.416.16-.442.173-.55.205-.64.166a.461.461,0,0,0-.276.039c-.166.064-.32.128-.525.205a1.283,1.283,0,0,0-.192.1c-.051.032-.327.167-.609.295s-.608.288-.73.346-.377.2-.577.307c-.454.276-.557.269-.679-.025-.083-.2-.09-.34-.026-.942a2.375,2.375,0,0,1,.391-1.345c.141-.154.147-.269.019-.32-.084-.026-.077-.077.032-.327a3.752,3.752,0,0,1,.288-.525,1,1,0,0,0,.161-.449,1.534,1.534,0,0,1,.134-.5c.134-.288.525-.673.679-.673.128,0,.276-.192.276-.359,0-.224.775-.973,1.249-1.21a2.879,2.879,0,0,0,.544-.333.648.648,0,0,1,.211-.148.976.976,0,0,0,.25-.134c.147-.109.217-.121.333-.071s.192.013.615-.409a3.234,3.234,0,0,1,.525-.474.742.742,0,0,0,.231-.115c.519-.352.98-.654,1.012-.654a1.009,1.009,0,0,0,.237-.147,7.108,7.108,0,0,1,.686-.429c.121-.07.314-.186.416-.256s.282-.173.384-.231a.954.954,0,0,0,.224-.154,3.876,3.876,0,0,1,.737-.449c.141-.077.436-.269.66-.423a3.219,3.219,0,0,1,.455-.282.215.215,0,0,0,.129-.09,1.106,1.106,0,0,1,.282-.192c.115-.057.25-.128.3-.16a2.838,2.838,0,0,1,.961-.371c.237-.026.314-.071.4-.212a1.415,1.415,0,0,1,.57-.409,4.7,4.7,0,0,0,.564-.321,8.915,8.915,0,0,1,1.678-.833.528.528,0,0,0,.231-.064c.1-.1.211-.026.211.122s-.057.192-.307.307a5.925,5.925,0,0,0-1.352,1.057c-.345.333-.364.339-.64.3s-.288-.032-.557.262a1.186,1.186,0,0,0-.282.4,1.232,1.232,0,0,1-.532.647.826.826,0,0,0-.321.308c-.141.211-.217.269-.365.269a.41.41,0,0,0-.346.211.769.769,0,0,0-.167.308c0,.128-.345.307-.461.243-.064-.039-.134-.019-.2.058a3.744,3.744,0,0,0-.314,1.1c-.019.135-.051.161-.224.148m4.926,10.255c-.077.045-.333-.026-.333-.1s.3-.077.352,0a.071.071,0,0,1-.019.1m2.088.922c-.379-.006-.781-.147-.717-.249a1.753,1.753,0,0,1,.961.077c.16.134.1.179-.244.173m3.94-5.682a2.073,2.073,0,0,0-.519.449,1.82,1.82,0,0,1-.41.378,1.679,1.679,0,0,0-.4.288,1.774,1.774,0,0,1-.4.289,7.218,7.218,0,0,0-1.294.935.623.623,0,0,0-.135.32.265.265,0,0,1-.14.224.986.986,0,0,0-.276.224,2.785,2.785,0,0,1-.544.371c-.384.2-.417.23-.436.449s-.032.23-.231.23a3.355,3.355,0,0,1-1.159-.249,4.153,4.153,0,0,0-.621-.231,1.559,1.559,0,0,1-.6-.321,1.069,1.069,0,0,0-.295-.224,2.177,2.177,0,0,1-.813-.57,1.78,1.78,0,0,1,.9-.321.337.337,0,0,0,.212-.07c.019-.039.109-.064.2-.064a.621.621,0,0,0,.269-.064c.058-.032.224-.109.366-.167a4.827,4.827,0,0,0,1.313-.967.4.4,0,0,1,.288-.211c.147,0,.449-.288.73-.711a1.749,1.749,0,0,1,.782-.577.791.791,0,0,0,.282-.121c.109-.064.4-.224.641-.346a2.238,2.238,0,0,1,.589-.231,1.625,1.625,0,0,1,.544.327,3.967,3.967,0,0,0,1.249.7c.154,0,.089.193-.09.263m2.741-14.3a2.223,2.223,0,0,0-.115.269l-.173.4a1.364,1.364,0,0,0-.1.449c0,.307-.116.417-.481.449a7.089,7.089,0,0,0-1.275.237,2.215,2.215,0,0,1-.544.064c-.4,0-.519.071-.519.327,0,.192-.109.263-.449.276a1.127,1.127,0,0,0-.48.186,1.246,1.246,0,0,1-.308.173.889.889,0,0,0-.263.16.959.959,0,0,1-.262.16.484.484,0,0,0-.186.122,4.1,4.1,0,0,1-.57.352,5.763,5.763,0,0,0-.762.48,1.271,1.271,0,0,1-.436.263,1.8,1.8,0,0,0-.877.775.5.5,0,0,1-.09.224.3.3,0,0,0-.058.211.406.406,0,0,1-.07.244,1.915,1.915,0,0,0-.077.634c-.006.487.013.6.135.794a2.806,2.806,0,0,1,.4.839c0,.141.179.282.481.378.141.045.365.128.5.179a1.991,1.991,0,0,0,1.185-.09c.128-.039.147-.026.128.1s-.115.192-.435.327a3.038,3.038,0,0,0-.7.416,3.833,3.833,0,0,1-1.275.794.473.473,0,0,0-.23.1.483.483,0,0,1-.218.1.769.769,0,0,0-.288.141,4,4,0,0,1-.461.276c-.167.083-.263.179-.276.275-.025.18.013.18.627-.032a1.825,1.825,0,0,1,.551-.135c.077.083-.051.314-.212.378-.116.045-.154.1-.128.179s-.013.135-.141.166a1.425,1.425,0,0,0-.371.2.4.4,0,0,0-.212.378c0,.173-.045.25-.224.391a1.158,1.158,0,0,0-.307.34c-.321.6-.48.826-.628.871a.375.375,0,0,0-.185.2c-.051.122-.109.154-.3.154a.45.45,0,0,1-.4-.2l-.16-.2-.673.173c-.89.231-1.031.237-1.127.032a1.909,1.909,0,0,1-.122-.436c-.039-.237-.032-.269.084-.269a.309.309,0,0,0,.205-.1.277.277,0,0,1,.154-.1c.1-.006.423-.3.423-.378,0-.1-.116-.141-.237-.084a3.967,3.967,0,0,1-.7.25c-.135.032-.148.013-.148-.263,0-.256.02-.307.154-.359a.431.431,0,0,0,.192-.122,12.416,12.416,0,0,0,.276-1.4.468.468,0,0,1,.089-.243.164.164,0,0,0,.057-.129A9.252,9.252,0,0,1,156.5,156.5c.033-.039.352-.468.718-.961a8.3,8.3,0,0,1,2.216-2.248c.391-.263.91-.641,1.154-.839a5.916,5.916,0,0,1,1.4-.916c.244,0,.775-.435.775-.641a1.554,1.554,0,0,1,.749-.512.18.18,0,0,1,.141.058c.064.1.269.006.494-.224a.868.868,0,0,1,.269-.218.962.962,0,0,0,.263-.16.823.823,0,0,1,.282-.16,2.255,2.255,0,0,0,.39-.166c.276-.148.327-.2.327-.352s.026-.186.154-.186c.083,0,.166-.019.179-.051a2.523,2.523,0,0,1,1.025-.327,1.437,1.437,0,0,0,.409-.09c.071-.07.218-.051.218.019a.506.506,0,0,1-.058.179" transform="translate(1551.731 -135.262)" fill="#fff"/><path d="M334.867,225.63c-.057,0-.122-.026-.493-.211a1.121,1.121,0,0,0-.4-.109.7.7,0,0,1-.365-.154,3.8,3.8,0,0,0-1.108-.467.68.68,0,0,1-.257-.116,1.154,1.154,0,0,0-.448-.115,3.087,3.087,0,0,1-.737-.2,2.081,2.081,0,0,0-.628-.166c-.231,0-.244.013-.224.173.013.141.064.192.256.244a.949.949,0,0,1,.282.109.227.227,0,0,0,.16.052,1.134,1.134,0,0,1,.327.109c.39.193.435.212.551.212a2.408,2.408,0,0,1,.461.135,3,3,0,0,0,.532.166c.1.019.173.057.173.089s.064.058.147.058a.51.51,0,0,1,.263.1.55.55,0,0,0,.269.1c.084,0,.167.026.186.064a.226.226,0,0,0,.167.064.638.638,0,0,1,.269.077.982.982,0,0,0,.237.089,3.484,3.484,0,0,1,.417.116c.41.128.481.128.481-.013a.919.919,0,0,0-.519-.4" transform="translate(1397.14 -197.762)" fill="#fff"/><path d="M365.549,235.761c-.2-.224-.327-.237-.711-.071-.333.154-.366.224-.231.551.154.371.334.538.583.538.173,0,.237-.039.371-.256.205-.327.205-.512-.012-.762" transform="translate(1369.174 -207.119)" fill="#fff"/><path d="M292.432,138.863a2.908,2.908,0,0,0-2.768-.138c0-.186.065-.207.508-.264a1.737,1.737,0,0,0,.571-.154,4.042,4.042,0,0,1,1.223-.391,1.3,1.3,0,0,0,.449-.154,3.059,3.059,0,0,1,1.325-.455,1.454,1.454,0,0,0,.481-.128,1.419,1.419,0,0,1,.371-.128c.058,0,.109-.026.109-.064,0-.1-.32-.154-.4-.071a.3.3,0,0,1-.185.071.218.218,0,0,0-.173.121c-.051.1-.166.128-.532.16-.256.026-.544.045-.64.045-.116,0-.186.039-.212.122a.2.2,0,0,1-.147.128c-.083,0-1.076.084-1.53.122a.113.113,0,0,0-.084.115c-.006.179-.365.32-.769.294a3.2,3.2,0,0,0-1.39.051,2.147,2.147,0,0,1-.672.314,1.311,1.311,0,0,0-.346.224l-.269.224" transform="translate(1432.053 -126.713)" fill="#fff"/><path d="M340.308,133.735a.544.544,0,0,0,.513,0c.026-.039-.077-.064-.257-.064s-.282.026-.256.064" transform="translate(1388.911 -124.101)" fill="#fff"/><path d="M329.785,135.233a.516.516,0,0,1-.423.013c-.205-.077-.326,0-.205.121a2.11,2.11,0,0,0,1.262-.083c.064-.1-.4-.135-.634-.052" transform="translate(1398.031 -125.336)" fill="#fff"/></g></svg>