<svg xmlns="http://www.w3.org/2000/svg" xmlns:xlink="http://www.w3.org/1999/xlink" width="110.5" height="100.318" viewBox="0 0 110.5 100.318"><defs><linearGradient id="a" x1="4.032" x2="-1.25" y2="1" gradientUnits="objectBoundingBox"><stop offset="0" stop-color="#5b97ff"/><stop offset="1" stop-color="#253d80"/></linearGradient><linearGradient id="e" x1="0.5" x2="0.5" y2="1" gradientUnits="objectBoundingBox"><stop offset="0" stop-color="#add036"/><stop offset="1" stop-color="#90ab33"/></linearGradient></defs><g transform="translate(-1066 -1605)"><g transform="translate(1060.375 1600.5)"><path d="M14.042,84.5h10a1.672,1.672,0,0,0,1.667-1.667V6.167A1.672,1.672,0,0,0,24.042,4.5h-10a1.672,1.672,0,0,0-1.667,1.667V82.833A1.672,1.672,0,0,0,14.042,84.5Z" transform="translate(13.25)" fill="url(#a)"/><path d="M7.292,53.583h10a1.672,1.672,0,0,0,1.667-1.667v-30a1.672,1.672,0,0,0-1.667-1.667h-10a1.672,1.672,0,0,0-1.667,1.667v30A1.672,1.672,0,0,0,7.292,53.583Z" transform="translate(0 30.917)" fill="url(#a)"/><path d="M20.812,62.417h9.958a1.68,1.68,0,0,0,1.687-1.687V17.438a1.68,1.68,0,0,0-1.687-1.687H20.812a1.68,1.68,0,0,0-1.687,1.688V60.729A1.68,1.68,0,0,0,20.812,62.417Z" transform="translate(26.5 22.083)" fill="url(#a)"/><path d="M25.875,10.688V73.979a1.68,1.68,0,0,0,1.688,1.687h9.958a1.68,1.68,0,0,0,1.688-1.687V10.688A1.68,1.68,0,0,0,37.521,9H27.562A1.68,1.68,0,0,0,25.875,10.688Z" transform="translate(39.75 8.833)" fill="url(#a)"/></g><path d="M65.43,7.586H53.1V2.845A2.838,2.838,0,0,0,50.258,0H18.017a2.838,2.838,0,0,0-2.845,2.845V7.586H2.845A2.838,2.838,0,0,0,0,10.431v6.638C0,21.3,2.667,25.651,7.337,29.005a27.769,27.769,0,0,0,13.039,4.943,26.219,26.219,0,0,0,8.072,8.724v8.534h-5.69c-4.184,0-7.586,2.454-7.586,6.638v1.422a1.427,1.427,0,0,0,1.422,1.422H51.68A1.427,1.427,0,0,0,53.1,59.267V57.844c0-4.184-3.4-6.638-7.586-6.638h-5.69V42.672A26.219,26.219,0,0,0,47.9,33.948a27.674,27.674,0,0,0,13.039-4.943c4.658-3.354,7.337-7.7,7.337-11.936V10.431A2.838,2.838,0,0,0,65.43,7.586ZM11.77,22.853c-2.892-2.086-4.184-4.409-4.184-5.784v-1.9H15.2A42.573,42.573,0,0,0,16.713,25.39a19.1,19.1,0,0,1-4.943-2.537Zm48.919-5.784c0,1.908-2.1,4.279-4.184,5.784A19.177,19.177,0,0,1,51.55,25.39a42.573,42.573,0,0,0,1.517-10.218h7.622Z" transform="translate(1108.225 1644.629)" fill="url(#e)"/></g></svg>