<svg xmlns="http://www.w3.org/2000/svg" width="22.842" height="22.843" viewBox="0 0 22.842 22.843">
  <path id="whatshapp" d="M13.878,2.25A11.171,11.171,0,0,0,2.665,13.377a11.012,11.012,0,0,0,1.609,5.746L2.25,25.092,8.458,23.12a11.233,11.233,0,0,0,16.634-9.743A11.171,11.171,0,0,0,13.878,2.25ZM19.454,17.6a2.9,2.9,0,0,1-1.983,1.278c-.526.028-.541.408-3.408-.838a11.7,11.7,0,0,1-4.728-4.47,5.5,5.5,0,0,1-1.058-2.98A3.177,3.177,0,0,1,9.369,8.261a1.1,1.1,0,0,1,.777-.327c.226,0,.372-.007.539,0s.418-.035.635.542.736,2,.8,2.141a.52.52,0,0,1,.005.5,1.947,1.947,0,0,1-.3.463c-.15.161-.315.359-.448.482-.149.136-.3.284-.148.575a8.581,8.581,0,0,0,1.518,2.026,7.824,7.824,0,0,0,2.248,1.495c.281.153.449.136.623-.047s.746-.8.948-1.079.391-.223.65-.119,1.64.844,1.921,1,.469.231.536.352A2.355,2.355,0,0,1,19.454,17.6Z" transform="translate(-2.25 -2.25)" fill="#59d036"/>
</svg>
