<svg xmlns="http://www.w3.org/2000/svg" width="74.136" height="41.618" viewBox="0 0 74.136 41.618"><g transform="translate(-1463.936 -10367.385)"><path d="M19.679.563A19.117,19.117,0,1,0,38.8,19.679,19.113,19.113,0,0,0,19.679.563Z" transform="translate(1463.374 10366.822)" fill="#add036"/><path d="M55.119,13.69c0-4.877-3.587-8.8-8.02-8.8-6-.282-12.127-.39-18.38-.39H26.768c-6.242,0-12.376.108-18.38.39C3.967,4.89.38,8.835.38,13.712.109,17.57-.011,21.428,0,25.286q-.016,5.787.368,11.585c0,4.877,3.587,8.832,8.009,8.832,6.307.293,12.777.423,19.355.412q9.884.033,19.355-.412c4.432,0,8.02-3.956,8.02-8.832.26-3.869.379-7.727.368-11.6Q55.509,19.488,55.119,13.69ZM22.434,35.917v-21.3L38.148,25.264Z" transform="translate(1482.593 10362.885)" fill="#253d80"/></g></svg>